<svg xmlns="http://www.w3.org/2000/svg" width="100" height="100" viewBox="0 0 100 100">
  <defs>
    <style>
      .cls-1 {
        fill: #b3dafe;
      }

      .cls-2 {
        fill: #d8ecfe;
      }

      .cls-3 {
        fill: #fff;
      }

      .cls-4 {
        fill: #ff7647;
      }

      .cls-5 {
        fill: #ff9c6c;
      }

      .cls-6 {
        fill: #95b0ed;
      }
    </style>
  </defs>
  <g id="Group_74" data-name="Group 74" transform="translate(-1004.6 -1566.934)">
    <path id="Path_231" data-name="Path 231" class="cls-1" d="M1103.136,1616.934A48.535,48.535,0,1,1,1054.6,1568.4a48.535,48.535,0,0,1,48.536,48.535Zm0,0"/>
    <path id="Path_232" data-name="Path 232" class="cls-2" d="M1054.6,1574.258v85.352a42.676,42.676,0,1,0,0-85.352Zm0,0"/>
    <path id="Path_233" data-name="Path 233" class="cls-3" d="M1091.417,1616.934c0-23.569-16.484-42.676-36.817-42.676a42.676,42.676,0,0,0,0,85.352c20.333,0,36.817-19.107,36.817-42.676Zm0,0"/>
    <path id="Path_234" data-name="Path 234" class="cls-4" d="M1088.487,1614h-5.859v5.86h5.859a2.93,2.93,0,0,0,0-5.86Zm0,0"/>
    <path id="Path_235" data-name="Path 235" class="cls-5" d="M1082.628,1614h-25.883v5.86h25.883a2.93,2.93,0,0,0,0-5.86Zm0,0"/>
    <path id="Path_236" data-name="Path 236" class="cls-5" d="M1057.53,1588.907a2.93,2.93,0,1,0-5.859,0v25.883h5.859Zm0,0"/>
    <path id="Path_237" data-name="Path 237" class="cls-6" d="M1060.46,1616.934a5.859,5.859,0,1,1-5.86-5.859,5.86,5.86,0,0,1,5.86,5.859Zm0,0"/>
    <path id="Path_238" data-name="Path 238" d="M1087.884,1598.181a1.465,1.465,0,1,1-1.771-1.073,1.465,1.465,0,0,1,1.771,1.073Zm0,0"/>
    <path id="Path_239" data-name="Path 239" d="M1074.277,1585.783a1.465,1.465,0,1,0-2,.536,1.464,1.464,0,0,0,2-.536Zm0,0"/>
    <path id="Path_240" data-name="Path 240" d="M1056.065,1580.118a1.464,1.464,0,1,1-1.465-1.465,1.466,1.466,0,0,1,1.465,1.465Zm0,0"/>
    <path id="Path_241" data-name="Path 241" d="M1036.925,1586.319a1.465,1.465,0,1,0-2-.536,1.465,1.465,0,0,0,2,.536Zm0,0"/>
    <path id="Path_242" data-name="Path 242" d="M1022.943,1597.062a1.466,1.466,0,1,1-1.669,1.229,1.465,1.465,0,0,1,1.669-1.229Zm0,0"/>
    <path id="Path_243" data-name="Path 243" d="M1019.249,1616.934a1.465,1.465,0,1,1-1.465-1.465,1.465,1.465,0,0,1,1.465,1.465Zm0,0"/>
    <path id="Path_244" data-name="Path 244" d="M1024.171,1635.179a1.465,1.465,0,1,1-1.615-1.295,1.465,1.465,0,0,1,1.615,1.295Zm0,0"/>
    <path id="Path_245" data-name="Path 245" d="M1034.924,1648.085a1.465,1.465,0,1,0,2-.536,1.464,1.464,0,0,0-2,.536Zm0,0"/>
    <path id="Path_246" data-name="Path 246" d="M1056.065,1653.75a1.464,1.464,0,1,1-1.465-1.464,1.465,1.465,0,0,1,1.465,1.464Zm0,0"/>
    <path id="Path_247" data-name="Path 247" d="M1072.276,1647.549a1.465,1.465,0,1,0,2,.536,1.464,1.464,0,0,0-2-.536Zm0,0"/>
    <path id="Path_248" data-name="Path 248" d="M1086.9,1633.938a1.465,1.465,0,1,1-1.806,1.016,1.467,1.467,0,0,1,1.806-1.016Zm0,0"/>
    <path id="Path_249" data-name="Path 249" d="M1056.065,1616.934a1.464,1.464,0,1,1-1.465-1.465,1.465,1.465,0,0,1,1.465,1.465Zm0,0"/>
    <path id="Path_250" data-name="Path 250" d="M1089.956,1581.578a50,50,0,1,0,14.644,35.356,49.677,49.677,0,0,0-14.644-35.356ZM1054.6,1664a47.07,47.07,0,1,1,47.071-47.07A47.124,47.124,0,0,1,1054.6,1664Zm0,0"/>
    <path id="Path_251" data-name="Path 251" d="M1085.813,1585.722a44.138,44.138,0,0,0-60.208-2.068,1.465,1.465,0,1,0,1.925,2.208,41.223,41.223,0,1,1-4,4,1.465,1.465,0,0,0-2.209-1.926,44.14,44.14,0,1,0,64.493-2.216Zm0,0"/>
    <path id="Path_252" data-name="Path 252" d="M1031.675,1639.86a1.467,1.467,0,0,0,2.072,0l16.817-16.818a7.314,7.314,0,0,0,9.892-1.713h28.031a4.394,4.394,0,1,0,0-8.789h-28.031a7.384,7.384,0,0,0-1.461-1.461v-22.172a4.394,4.394,0,1,0-8.789,0v22.172a7.311,7.311,0,0,0-1.713,9.892l-16.818,16.818a1.464,1.464,0,0,0,0,2.071Zm56.812-24.391a1.465,1.465,0,0,1,0,2.93h-26.71a7.322,7.322,0,0,0,0-2.93Zm-35.351-26.562a1.464,1.464,0,1,1,2.929,0v20.85a7.37,7.37,0,0,0-2.929,0Zm1.464,23.633a4.394,4.394,0,1,1-4.394,4.394,4.4,4.4,0,0,1,4.394-4.394Zm0,0"/>
  </g>
</svg>
