<svg xmlns="http://www.w3.org/2000/svg" width="119.231" height="100" viewBox="0 0 119.231 100">
  <defs>
    <style>
      .cls-1 {
        fill: #d8ecfe;
      }

      .cls-2 {
        fill: #ff9c6c;
      }

      .cls-3 {
        fill: #8892a0;
      }

      .cls-4 {
        fill: #8ac9fe;
      }

      .cls-5 {
        fill: #ff7647;
      }

      .cls-6 {
        fill: #e7e4dd;
      }

      .cls-7 {
        fill: #b3dafe;
      }
    </style>
  </defs>
  <g id="Group_72" data-name="Group 72" transform="translate(-744.98 -1566.934)">
    <path id="Path_221" data-name="Path 221" class="cls-1" d="M846.9,1603.474v53.845a7.693,7.693,0,1,1,7.693,7.692h-100a7.692,7.692,0,1,1,7.692-7.692v-53.845Z"/>
    <path id="Path_222" data-name="Path 222" class="cls-2" d="M817.983,1609.983c2.34.989,3.921,2.871,3.921,5.029,0,3.186-3.444,5.769-7.692,5.769s-7.692-2.583-7.692-5.769c0-2.158,1.58-4.04,3.921-5.029"/>
    <path id="Path_223" data-name="Path 223" class="cls-3" d="M762.29,1630.4h7.692a3.845,3.845,0,0,0,3.846-3.846v-5.457a5.767,5.767,0,0,1,3.944-5.473l9.417-3.139a5.768,5.768,0,0,0,3.946-5.473v-3.534h7.692v5.144a11.538,11.538,0,0,1-7.89,10.946l-8.1,2.7a1.921,1.921,0,0,0-1.314,1.825v2.459a3.845,3.845,0,0,0,3.846,3.846h38.461a3.845,3.845,0,0,0,3.846-3.846v-23.076h7.692v23.076a3.845,3.845,0,0,0,3.846,3.846H846.9v7.692h-9.615a1.925,1.925,0,0,0-1.923,1.924v7.692a1.924,1.924,0,0,0,1.923,1.923H846.9v7.692h-9.615a1.924,1.924,0,0,0-1.923,1.923v5.769h-7.692v-23.076a3.846,3.846,0,0,0-3.846-3.847H806.52a3.846,3.846,0,0,0-3.846,3.847v23.076h-7.693v-26.923H781.52v1.518a45.8,45.8,0,0,1-7.692,25.405h-9.615L766,1662.5a41.991,41.991,0,0,0,7.825-24.415H762.29Z"/>
    <path id="Path_224" data-name="Path 224" class="cls-4" d="M746.905,1657.319a7.692,7.692,0,0,1,15.385,0v-53.845a7.692,7.692,0,0,0-15.385,0Z"/>
    <path id="Path_225" data-name="Path 225" class="cls-4" d="M846.9,1657.319a7.693,7.693,0,0,1,15.385,0v-53.845a7.693,7.693,0,0,0-15.385,0Z"/>
    <path id="Path_226" data-name="Path 226" class="cls-5" d="M814.212,1615.012l13.846-18.461a17.308,17.308,0,1,0-27.692,0Z"/>
    <circle id="Ellipse_9" data-name="Ellipse 9" class="cls-6" cx="7.692" cy="7.692" r="7.692" transform="translate(806.52 1576.551)"/>
    <path id="Path_227" data-name="Path 227" class="cls-7" d="M846.9,1603.474v38.182a53.125,53.125,0,0,0,10.071-45.461,7.616,7.616,0,0,0-2.378-.413,7.693,7.693,0,0,0-7.693,7.692Z"/>
    <path id="Path_228" data-name="Path 228" class="cls-7" d="M746.905,1603.474v38.182a53.126,53.126,0,0,0,10.071-45.461,7.6,7.6,0,0,0-10.071,7.279Z"/>
    <g id="Group_71" data-name="Group 71">
      <path id="Path_229" data-name="Path 229" d="M854.594,1593.855a9.633,9.633,0,0,0-9.419,7.7H826.71l2.884-3.848a19.229,19.229,0,1,0-30.768,0l2.886,3.848-37.695,0a9.616,9.616,0,0,0-19.037,1.921v53.847a9.626,9.626,0,0,0,9.614,9.615l100,0a9.626,9.626,0,0,0,9.615-9.615v-53.845a9.629,9.629,0,0,0-9.617-9.619ZM844.98,1647.7h-7.692v-7.69h7.692Zm0-11.536h-7.692a3.847,3.847,0,0,0-3.846,3.846v7.69a3.847,3.847,0,0,0,3.846,3.846h7.692v3.85l-7.692,0a3.847,3.847,0,0,0-3.846,3.846v3.848h-3.848l0-21.155a5.776,5.776,0,0,0-5.769-5.769h-17.3a5.776,5.776,0,0,0-5.77,5.769v21.153H796.9v-25a1.92,1.92,0,0,0-1.923-1.923H781.52a1.921,1.921,0,0,0-1.923,1.923v1.515a43.724,43.724,0,0,1-6.844,23.484h-4.835a43.662,43.662,0,0,0,7.833-25,1.921,1.921,0,0,0-1.923-1.923h-9.615v-3.848h5.769a5.778,5.778,0,0,0,5.769-5.77l0-5.453a3.841,3.841,0,0,1,2.631-3.65l9.417-3.139a7.679,7.679,0,0,0,5.258-7.3V1605.4H796.9v3.219a9.612,9.612,0,0,1-6.576,9.123l-8.1,2.7a3.841,3.841,0,0,0-2.631,3.65v2.457a5.777,5.777,0,0,0,5.769,5.768h38.459a5.776,5.776,0,0,0,5.769-5.768l0-21.153h3.846v21.151a5.777,5.777,0,0,0,5.769,5.77h5.769Zm-19.232,26.924H804.6v-21.153a1.923,1.923,0,0,1,1.923-1.923h17.3a1.923,1.923,0,0,1,1.923,1.923Zm-32.692,0H777.264a47.554,47.554,0,0,0,6.177-23.076h9.615Zm-21.151-36.54a1.925,1.925,0,0,1-1.923,1.923h-5.771v-23.076l25,0V1607a3.839,3.839,0,0,1-2.626,3.65l-9.418,3.139a7.682,7.682,0,0,0-5.261,7.3Zm73.075,1.923h-5.769a1.924,1.924,0,0,1-1.923-1.923V1605.4h7.692Zm-30.768-57.689a15.382,15.382,0,0,1,12.3,24.615l-12.3,16.411L801.9,1595.4a15.384,15.384,0,0,1,12.308-24.615Zm5.765,44.23c0,2.087-2.64,3.846-5.767,3.846s-5.769-1.759-5.769-3.846a3.27,3.27,0,0,1,1.479-2.515l2.753,3.671a1.923,1.923,0,0,0,3.077,0l2.752-3.669a3.273,3.273,0,0,1,1.475,2.513Zm-12.375-5.6a7.055,7.055,0,0,0-3.007,5.6c0,4.242,4.311,7.692,9.615,7.692s9.613-3.45,9.613-7.692a7.063,7.063,0,0,0-3.006-5.6l3.01-4.011h1.923l0,21.151a1.923,1.923,0,0,1-1.923,1.923H785.364a1.924,1.924,0,0,1-1.923-1.923v-2.457l8.1-2.7a13.451,13.451,0,0,0,9.207-12.773V1605.4H804.6Zm-58.776-5.936a5.77,5.77,0,0,1,11.539,0v46.159a9.6,9.6,0,0,0-11.539,0Zm0,53.847a5.77,5.77,0,0,1,11.539,0,1.923,1.923,0,0,0,3.846,0V1640.01h7.648a39.836,39.836,0,0,1-7.421,21.374l-1.216,1.7h-8.628a5.777,5.777,0,0,1-5.768-5.769Zm105.77,5.771H837.288l0-3.848,9.616,0h0a1.924,1.924,0,0,0,1.923-1.923,5.77,5.77,0,1,1,5.77,5.769Zm5.769-13.457a9.6,9.6,0,0,0-11.539,0v-46.159a5.772,5.772,0,0,1,5.77-5.771,5.78,5.78,0,0,1,5.769,5.773Z"/>
      <path id="Path_230" data-name="Path 230" d="M814.212,1593.857a9.615,9.615,0,1,0-9.615-9.614A9.623,9.623,0,0,0,814.212,1593.857Zm0-15.383a5.768,5.768,0,1,1-5.769,5.769A5.776,5.776,0,0,1,814.212,1578.474Z"/>
    </g>
  </g>
</svg>
