<svg xmlns="http://www.w3.org/2000/svg" width="157.742" height="170" viewBox="0 0 157.742 170">
  <defs>
    <style>
      .cls-1 {
        fill: #ededed;
      }

      .cls-2 {
        fill: #d6d6d6;
      }

      .cls-3 {
        fill: #345863;
      }

      .cls-4 {
        fill: #1e4751;
      }

      .cls-5 {
        fill: #f43b45;
      }

      .cls-6 {
        fill: #ff9c43;
      }
    </style>
  </defs>
  <g id="Group_35" data-name="Group 35" transform="translate(-321.129 -1014.841)">
    <g id="Group_33" data-name="Group 33">
      <g id="Group_31" data-name="Group 31">
        <g id="Group_30" data-name="Group 30">
          <path id="Path_30" data-name="Path 30" class="cls-1" d="M469.673,1182.351H330.327a6.708,6.708,0,0,1-6.708-6.708V1036.3a6.708,6.708,0,0,1,6.708-6.708H469.673a6.708,6.708,0,0,1,6.708,6.708v139.346A6.708,6.708,0,0,1,469.673,1182.351Z"/>
          <path id="Path_31" data-name="Path 31" class="cls-2" d="M469.673,1029.589H459.234v152.762h10.439a6.708,6.708,0,0,0,6.708-6.708V1036.3A6.708,6.708,0,0,0,469.673,1029.589Z"/>
          <path id="Path_32" data-name="Path 32" class="cls-3" d="M469.673,1029.589H330.327a6.708,6.708,0,0,0-6.708,6.708v20.81H476.381V1036.3A6.708,6.708,0,0,0,469.673,1029.589Z"/>
          <path id="Path_33" data-name="Path 33" class="cls-4" d="M476.381,1057.107h0V1036.3a6.708,6.708,0,0,0-6.708-6.708H459.234v27.518Z"/>
        </g>
        <path id="Path_34" data-name="Path 34" class="cls-5" d="M402.67,1075.929l9.063,27.892a2.807,2.807,0,0,0,2.67,1.94H443.73a2.807,2.807,0,0,1,1.65,5.078l-23.727,17.238a2.807,2.807,0,0,0-1.019,3.138l9.063,27.892a2.808,2.808,0,0,1-4.32,3.139l-23.726-17.239a2.811,2.811,0,0,0-3.3,0l-23.726,17.239a2.808,2.808,0,0,1-4.32-3.139l9.063-27.892a2.807,2.807,0,0,0-1.019-3.138l-23.727-17.238a2.807,2.807,0,0,1,1.65-5.078H385.6a2.807,2.807,0,0,0,2.67-1.94l9.063-27.892A2.807,2.807,0,0,1,402.67,1075.929Z"/>
      </g>
      <g id="Group_32" data-name="Group 32">
        <path id="Path_35" data-name="Path 35" class="cls-6" d="M346.53,1041.949h0a7.044,7.044,0,0,1-7.044-7.044v-10.529a7.045,7.045,0,0,1,7.044-7.045h0a7.045,7.045,0,0,1,7.044,7.045v10.529A7.044,7.044,0,0,1,346.53,1041.949Z"/>
        <path id="Path_36" data-name="Path 36" class="cls-6" d="M382.177,1041.949h0a7.044,7.044,0,0,1-7.044-7.044v-10.529a7.044,7.044,0,0,1,7.044-7.045h0a7.045,7.045,0,0,1,7.044,7.045v10.529A7.044,7.044,0,0,1,382.177,1041.949Z"/>
        <path id="Path_37" data-name="Path 37" class="cls-6" d="M417.823,1041.949h0a7.044,7.044,0,0,1-7.044-7.044v-10.529a7.045,7.045,0,0,1,7.044-7.045h0a7.044,7.044,0,0,1,7.044,7.045v10.529A7.044,7.044,0,0,1,417.823,1041.949Z"/>
        <path id="Path_38" data-name="Path 38" class="cls-6" d="M453.47,1041.949h0a7.044,7.044,0,0,1-7.044-7.044v-10.529a7.045,7.045,0,0,1,7.044-7.045h0a7.045,7.045,0,0,1,7.044,7.045v10.529A7.044,7.044,0,0,1,453.47,1041.949Z"/>
      </g>
    </g>
    <g id="Group_34" data-name="Group 34">
      <path id="Path_39" data-name="Path 39" d="M400,1071.5a5.218,5.218,0,0,0-5.038,3.66l-9.063,27.892a.315.315,0,0,1-.3.219H356.27a5.3,5.3,0,0,0-3.113,9.583l23.726,17.239a.314.314,0,0,1,.115.354l-9.062,27.891a5.3,5.3,0,0,0,8.151,5.923l23.726-17.238a.318.318,0,0,1,.374,0l23.726,17.238a5.217,5.217,0,0,0,6.227,0,5.218,5.218,0,0,0,1.925-5.922L423,1130.446a.319.319,0,0,1,.115-.355l23.727-17.238a5.3,5.3,0,0,0-3.114-9.583H414.4a.317.317,0,0,1-.3-.219l-9.062-27.892h0A5.221,5.221,0,0,0,400,1071.5Zm9.364,33.092a5.284,5.284,0,0,0,5.038,3.66H443.73a.317.317,0,0,1,.186.573l-23.726,17.238a5.285,5.285,0,0,0-1.925,5.923l9.062,27.892a.317.317,0,0,1-.487.354l-23.727-17.238a5.287,5.287,0,0,0-6.227,0l-23.726,17.238a.317.317,0,0,1-.488-.354l9.062-27.892a5.284,5.284,0,0,0-1.924-5.923l-23.726-17.238a.316.316,0,0,1,.186-.573H385.6a5.284,5.284,0,0,0,5.038-3.66L399.7,1076.7a.317.317,0,0,1,.6,0Z"/>
      <path id="Path_40" data-name="Path 40" d="M469.673,1027.1h-6.668v-2.723a9.535,9.535,0,1,0-19.069,0v2.723H427.357v-2.723a9.534,9.534,0,1,0-19.068,0v2.723H391.711v-2.723a9.535,9.535,0,1,0-19.069,0v2.723H356.064v-2.723a9.535,9.535,0,1,0-19.069,0v2.723h-6.668a9.208,9.208,0,0,0-9.2,9.2V1071.3a2.49,2.49,0,0,0,4.98,0V1059.6H473.891v95.91a2.49,2.49,0,1,0,4.98,0V1036.3A9.208,9.208,0,0,0,469.673,1027.1Zm-20.757-2.723a4.554,4.554,0,0,1,9.108,0V1034.9a4.554,4.554,0,0,1-9.108,0Zm-35.646,0a4.554,4.554,0,1,1,9.107,0v10.529a4.554,4.554,0,0,1-9.107,0Zm-35.647,0a4.554,4.554,0,1,1,9.107,0v10.529a4.554,4.554,0,0,1-9.107,0Zm-31.093-4.554a4.559,4.559,0,0,1,4.554,4.554v10.529a4.554,4.554,0,0,1-9.108,0v-10.529A4.559,4.559,0,0,1,346.53,1019.822Zm-20.421,34.795V1036.3a4.223,4.223,0,0,1,4.218-4.218h6.668v2.826a9.535,9.535,0,0,0,19.069,0v-2.826h16.579v2.826a9.534,9.534,0,0,0,19.068,0v-2.826h16.578v2.826a9.535,9.535,0,0,0,19.069,0v-2.826h16.578v2.826a9.535,9.535,0,0,0,19.069,0v-2.826h6.669a4.222,4.222,0,0,1,4.217,4.218v18.32Z"/>
      <path id="Path_41" data-name="Path 41" d="M476.381,1164.858a2.49,2.49,0,0,0-2.49,2.491v8.294a4.223,4.223,0,0,1-4.218,4.218H330.327a4.223,4.223,0,0,1-4.218-4.218v-92.651a2.49,2.49,0,0,0-4.98,0v92.651a9.208,9.208,0,0,0,9.2,9.2H469.673a9.208,9.208,0,0,0,9.2-9.2v-8.294A2.49,2.49,0,0,0,476.381,1164.858Z"/>
    </g>
  </g>
</svg>
