<svg xmlns="http://www.w3.org/2000/svg" width="170" height="170" viewBox="0 0 170 170">
  <defs>
    <style>
      .cls-1 {
        fill: #acd2f6;
      }

      .cls-2 {
        fill: #95b0ed;
      }

      .cls-3 {
        fill: #c4f3ff;
      }

      .cls-4 {
        fill: #fff;
      }
    </style>
  </defs>
  <g id="Group_36" data-name="Group 36" transform="translate(-715 -1014.841)">
    <path id="Path_42" data-name="Path 42" class="cls-1" d="M882.51,1182.351h-9.961l-19.922-82.51,19.922-82.51h9.961Zm0,0"/>
    <path id="Path_43" data-name="Path 43" class="cls-2" d="M872.549,1182.351h-9.961l-19.922-82.51,19.922-82.51h9.961Zm0,0"/>
    <rect id="Rectangle_16" data-name="Rectangle 16" class="cls-1" width="115.215" height="34.863" transform="translate(747.373 1147.488)"/>
    <path id="Path_44" data-name="Path 44" class="cls-3" d="M822.744,1104.324l-75.371,43.164H717.49a14.941,14.941,0,0,0,14.942,14.941H837.686Zm0,0"/>
    <path id="Path_45" data-name="Path 45" class="cls-1" d="M822.744,1104.324v43.164a14.941,14.941,0,0,0,14.942,14.941h9.96v-58.1Zm0,0"/>
    <path id="Path_46" data-name="Path 46" class="cls-3" d="M852.627,1017.331l-9.961,144.244a14.943,14.943,0,0,0,19.922-14.087V1017.331Zm0,0"/>
    <path id="Path_47" data-name="Path 47" class="cls-4" d="M747.373,1017.331v130.157h85.332a14.944,14.944,0,0,0,9.961,14.087,14.944,14.944,0,0,0,9.961-14.087V1017.331Zm0,0"/>
    <path id="Path_48" data-name="Path 48" d="M772.275,1050.037h65.411a2.49,2.49,0,0,0,0-4.981H772.275a2.49,2.49,0,0,0,0,4.981Zm0,0"/>
    <path id="Path_49" data-name="Path 49" d="M772.275,1060h65.411a2.49,2.49,0,1,0,0-4.98H772.275a2.49,2.49,0,1,0,0,4.98Zm0,0"/>
    <path id="Path_50" data-name="Path 50" d="M772.275,1119.763h65.411a2.492,2.492,0,0,0,2.49-2.49v-49.8a2.492,2.492,0,0,0-2.49-2.49H772.275a2.492,2.492,0,0,0-2.49,2.49v49.8a2.492,2.492,0,0,0,2.49,2.49Zm2.491-39.844h4.98v34.864h-4.98Zm9.961,34.864v-34.864H835.2v34.864Zm50.468-39.844H784.727v-4.981H835.2Zm-55.449-4.981v4.981h-4.98v-4.981Zm0,0"/>
    <path id="Path_51" data-name="Path 51" d="M882.51,1014.841H747.373a2.491,2.491,0,0,0-2.49,2.49V1145H717.49a2.492,2.492,0,0,0-2.49,2.491,17.452,17.452,0,0,0,17.432,17.431H847.646a17.452,17.452,0,0,0,17.432-17.431V1019.822h4.981v160.039h-120.2v-7.471a2.49,2.49,0,0,0-4.98,0v9.961a2.49,2.49,0,0,0,2.49,2.49H882.51a2.491,2.491,0,0,0,2.49-2.49v-165.02a2.492,2.492,0,0,0-2.49-2.49Zm-150.078,145.1a12.474,12.474,0,0,1-12.2-9.961H830.393a17.4,17.4,0,0,0,5.065,9.961ZM860.1,1147.488a12.452,12.452,0,0,1-24.9,0,2.491,2.491,0,0,0-2.49-2.491H749.863V1019.822H860.1Zm19.922,32.373h-4.981V1019.822h4.981Zm0,0"/>
  </g>
</svg>
