<svg xmlns="http://www.w3.org/2000/svg" width="59.899" height="59.899" viewBox="0 0 59.899 59.899">
  <defs>
    <style>
      .cls-1 {
        fill: #eafaff;
      }

      .cls-2 {
        fill: #96c8ef;
      }

      .cls-3 {
        fill: #ff523d;
      }
    </style>
  </defs>
  <g id="Group_39" data-name="Group 39" transform="translate(-201.398 -1780.189)">
    <path id="Path_52" data-name="Path 52" class="cls-1" d="M238.367,1824.177H224.328l-11.7,14.741h37.437Z"/>
    <path id="Path_53" data-name="Path 53" class="cls-2" d="M248.428,1824.177H238.367l11.7,14.741h10.061Z"/>
    <path id="Path_54" data-name="Path 54" class="cls-3" d="M231.347,1831.547l-14.6-22.9a17.548,17.548,0,1,1,29.2,0C245.941,1808.657,231.4,1831.467,231.347,1831.547Zm8.765-26.805a10.531,10.531,0,1,0-8.765,4.694A10.446,10.446,0,0,0,240.112,1804.742Z"/>
    <path id="Path_55" data-name="Path 55" class="cls-2" d="M214.267,1824.177l-11.7,14.741h10.062l11.7-14.741Z"/>
    <path id="Path_56" data-name="Path 56" d="M238.367,1810.606a1.17,1.17,0,1,0,1.17,1.17A1.17,1.17,0,0,0,238.367,1810.606Z"/>
    <path id="Path_57" data-name="Path 57" d="M213.35,1823.45l-11.7,14.741a1.17,1.17,0,0,0,.916,1.9h57.56a1.17,1.17,0,0,0,.916-1.9l-11.7-14.741a1.169,1.169,0,0,0-.916-.443H238.18l8.749-13.723a18.718,18.718,0,1,0-31.164,0l8.75,13.723H214.267A1.171,1.171,0,0,0,213.35,1823.45Zm-4.368,9.267h7.074l-3.992,5.031H204.99Zm17.025-7.37,3.207,5.031H220.9l3.993-5.031Zm10.681,0H237.8l3.992,5.031h-8.313Zm6.963,7.37,3.993,5.031H215.051l3.993-5.031Zm6.98,5.031-3.993-5.031h7.075l3.992,5.031Zm1.224-7.37h-7.074l-3.992-5.031h7.074ZM217.719,1808a16.379,16.379,0,1,1,27.257,0l-.014.02c-.768,1.2-13.023,20.428-13.615,21.355-1.488-2.335-12.1-18.977-13.615-21.355Zm4.187,17.351-3.993,5.031h-7.074l3.993-5.031Z"/>
    <path id="Path_58" data-name="Path 58" d="M231.347,1810.606a11.7,11.7,0,1,0-11.7-11.7A11.7,11.7,0,0,0,231.347,1810.606Zm0-21.058a9.359,9.359,0,1,1-9.359,9.359A9.369,9.369,0,0,1,231.347,1789.548Z"/>
    <path id="Path_59" data-name="Path 59" d="M236.275,1814.6a1.171,1.171,0,0,0-1.606.4l-4.324,7.174a1.17,1.17,0,0,0,2,1.208l4.324-7.174A1.17,1.17,0,0,0,236.275,1814.6Z"/>
  </g>
</svg>
