<svg xmlns="http://www.w3.org/2000/svg" width="148.24" height="170" viewBox="0 0 148.24 170">
  <defs>
    <style>
      .cls-1 {
        fill: #eaf6ff;
      }

      .cls-2 {
        fill: #fd9468;
      }

      .cls-3 {
        fill: #d8ecfe;
      }

      .cls-4 {
        fill: #fe7d43;
      }

      .cls-5 {
        fill: #b3dafe;
      }

      .cls-6 {
        fill: #c4e2ff;
      }

      .cls-7 {
        fill: #8ac9fe;
      }
    </style>
  </defs>
  <g id="Group_27" data-name="Group 27" transform="translate(-1123.406 -1014.841)">
    <g id="Group_14" data-name="Group 14">
      <path id="Path_9" data-name="Path 9" class="cls-1" d="M1125.891,1039.374v137.392a5.589,5.589,0,0,0,5.589,5.589h132.09a5.59,5.59,0,0,0,5.59-5.589V1039.374Z"/>
    </g>
    <g id="Group_15" data-name="Group 15">
      <path id="Path_10" data-name="Path 10" class="cls-2" d="M1269.16,1039.374H1125.891v-16.458a5.589,5.589,0,0,1,5.589-5.589h132.09a5.59,5.59,0,0,1,5.59,5.589v16.458Z"/>
    </g>
    <g id="Group_16" data-name="Group 16">
      <path id="Path_11" data-name="Path 11" class="cls-3" d="M1269.161,1039.375v137.391a5.592,5.592,0,0,1-5.592,5.591h-6.628a5.592,5.592,0,0,0,5.591-5.591V1039.375Z"/>
    </g>
    <g id="Group_17" data-name="Group 17">
      <path id="Path_12" data-name="Path 12" class="cls-4" d="M1269.161,1022.917v16.458h-6.629v-16.458a5.592,5.592,0,0,0-5.591-5.592h6.628A5.592,5.592,0,0,1,1269.161,1022.917Z"/>
    </g>
    <g id="Group_18" data-name="Group 18">
      <path id="Path_13" data-name="Path 13" class="cls-3" d="M1177.566,1071.887h39.92v49.707h-39.92Z"/>
    </g>
    <g id="Group_19" data-name="Group 19">
      <path id="Path_14" data-name="Path 14" class="cls-3" d="M1177.566,1171.3h-38.723a1.2,1.2,0,0,1-1.2-1.2v-48.511h39.92Z"/>
    </g>
    <g id="Group_20" data-name="Group 20">
      <path id="Path_15" data-name="Path 15" class="cls-3" d="M1256.209,1171.3h-38.723v-49.708h39.919V1170.1A1.2,1.2,0,0,1,1256.209,1171.3Z"/>
    </g>
    <g id="Group_21" data-name="Group 21">
      <path id="Path_16" data-name="Path 16" class="cls-5" d="M1177.566,1121.594h-39.92v-48.511a1.2,1.2,0,0,1,1.2-1.2h38.723Z"/>
    </g>
    <g id="Group_22" data-name="Group 22">
      <path id="Path_17" data-name="Path 17" class="cls-5" d="M1257.405,1121.593h-39.919v-49.707h38.723a1.2,1.2,0,0,1,1.2,1.2Z"/>
    </g>
    <g id="Group_23" data-name="Group 23">
      <path id="Path_18" data-name="Path 18" class="cls-6" d="M1257.405,1121.593V1170.1a1.2,1.2,0,0,1-1.2,1.2h-6.629a1.2,1.2,0,0,0,1.2-1.2v-48.511Z"/>
    </g>
    <g id="Group_24" data-name="Group 24">
      <path id="Path_19" data-name="Path 19" class="cls-7" d="M1257.405,1073.085v48.508h-6.629v-48.508a1.2,1.2,0,0,0-1.2-1.2h6.629a1.2,1.2,0,0,1,1.2,1.2Z"/>
    </g>
    <g id="Group_25" data-name="Group 25">
      <path id="Path_20" data-name="Path 20" class="cls-5" d="M1177.566,1121.594h39.92V1171.3h-39.92Z"/>
    </g>
    <g id="Group_26" data-name="Group 26">
      <path id="Path_21" data-name="Path 21" d="M1263.571,1014.841h-132.09a8.084,8.084,0,0,0-8.075,8.075v93.26a2.485,2.485,0,0,0,4.971,0V1041.86h138.3v134.906a3.107,3.107,0,0,1-3.1,3.1h-132.09a3.108,3.108,0,0,1-3.1-3.1v-48.96a2.485,2.485,0,1,0-4.971,0v48.96a8.084,8.084,0,0,0,8.075,8.075h132.09a8.084,8.084,0,0,0,8.075-8.075v-153.85a8.085,8.085,0,0,0-8.075-8.075Zm3.1,22.047h-138.3v-13.972a3.107,3.107,0,0,1,3.1-3.1h132.09a3.106,3.106,0,0,1,3.1,3.1Z"/>
      <path id="Path_22" data-name="Path 22" d="M1137.646,1052.914h119.759a2.486,2.486,0,0,0,0-4.972H1137.646a2.486,2.486,0,0,0,0,4.972Z"/>
      <path id="Path_23" data-name="Path 23" d="M1137.646,1062.425h119.759a2.486,2.486,0,1,0,0-4.971H1137.646a2.486,2.486,0,0,0,0,4.971Z"/>
      <path id="Path_24" data-name="Path 24" d="M1135.161,1170.1a3.687,3.687,0,0,0,3.682,3.683h117.366a3.687,3.687,0,0,0,3.682-3.683v-97.022a3.686,3.686,0,0,0-3.682-3.682h-10.073a2.485,2.485,0,0,0,0,4.971h8.784v44.736h-34.949v-44.736H1234.6a2.485,2.485,0,1,0,0-4.971h-95.755a3.687,3.687,0,0,0-3.682,3.683Zm84.81-46.025h34.949v44.736h-34.949Zm-39.919-49.708H1215v44.737h-34.948Zm0,49.708H1215v44.736h-34.948Zm-39.92-49.708h34.948v44.737h-34.948Zm0,49.708h34.948v44.736h-34.948Z"/>
      <circle id="Ellipse_1" data-name="Ellipse 1" cx="2.817" cy="2.817" r="2.817" transform="translate(1144.129 1078.515)"/>
      <circle id="Ellipse_2" data-name="Ellipse 2" cx="2.817" cy="2.817" r="2.817" transform="translate(1184.194 1078.515)"/>
      <circle id="Ellipse_3" data-name="Ellipse 3" cx="2.818" cy="2.818" r="2.818" transform="translate(1224.158 1078.522)"/>
      <circle id="Ellipse_4" data-name="Ellipse 4" cx="2.817" cy="2.817" r="2.817" transform="translate(1144.129 1128.223)"/>
      <circle id="Ellipse_5" data-name="Ellipse 5" cx="2.817" cy="2.817" r="2.817" transform="translate(1184.194 1128.223)"/>
      <circle id="Ellipse_6" data-name="Ellipse 6" cx="2.817" cy="2.817" r="2.817" transform="translate(1224.114 1128.223)"/>
    </g>
  </g>
</svg>
