<svg xmlns="http://www.w3.org/2000/svg" width="100" height="100" viewBox="0 0 100 100">
  <defs>
    <style>
      .cls-1 {
        fill: #8ac9fe;
      }

      .cls-2 {
        fill: #d8ecfe;
      }

      .cls-3 {
        fill: #b3dafe;
      }

      .cls-4 {
        fill: #ff9c6c;
      }

      .cls-5 {
        fill: #ffc190;
      }

      .cls-6 {
        fill: #ff7647;
      }
    </style>
  </defs>
  <g id="Group_75" data-name="Group 75" transform="translate(-1227.597 -1566.934)">
    <path id="Path_253" data-name="Path 253" class="cls-1" d="M1255.56,1606.485h-5.86l5.86,29.787a2.931,2.931,0,0,0,5.859,0v-3.027l5.859-10.4-5.859-10.5a5.877,5.877,0,0,0-5.859-5.859Zm0,0"/>
    <path id="Path_254" data-name="Path 254" class="cls-2" d="M1234.922,1606.485h5.859l-5.859,29.689a2.93,2.93,0,1,1-5.86,0v-23.83a5.877,5.877,0,0,1,5.86-5.859Zm0,0"/>
    <path id="Path_255" data-name="Path 255" class="cls-3" d="M1255.56,1612.344a5.877,5.877,0,0,0-5.86-5.859h-8.919a5.876,5.876,0,0,0-5.859,5.859v49.431a3.695,3.695,0,0,0,7.389,0v-25.6h5.859v25.6a3.7,3.7,0,0,0,7.39,0Zm0,0"/>
    <path id="Path_256" data-name="Path 256" class="cls-1" d="M1320.273,1606.485h-5.859l5.859,29.787a2.931,2.931,0,0,0,5.859,0v-23.928a5.876,5.876,0,0,0-5.859-5.859Zm0,0"/>
    <path id="Path_257" data-name="Path 257" class="cls-2" d="M1299.635,1606.485h5.859l-5.859,29.689a2.93,2.93,0,1,1-5.859,0v-2.832l-5.86-10.548,5.86-10.45a5.876,5.876,0,0,1,5.859-5.859Zm0,0"/>
    <path id="Path_258" data-name="Path 258" class="cls-3" d="M1320.273,1612.344a5.877,5.877,0,0,0-5.859-5.859h-8.92a5.877,5.877,0,0,0-5.859,5.859v49.431a3.695,3.695,0,0,0,7.389,0v-25.6h5.86v25.6a3.694,3.694,0,0,0,7.389,0Zm0,0"/>
    <path id="Path_259" data-name="Path 259" class="cls-4" d="M1309.89,1583.047v17.578a8.789,8.789,0,0,0,0-17.578Zm0,0"/>
    <path id="Path_260" data-name="Path 260" class="cls-5" d="M1312.82,1591.836c0-4.854-1.313-8.789-2.93-8.789a8.789,8.789,0,1,0,0,17.578c1.617,0,2.93-3.934,2.93-8.789Zm0,0"/>
    <path id="Path_261" data-name="Path 261" class="cls-4" d="M1245.305,1583.047v17.578a8.789,8.789,0,0,0,0-17.578Zm0,0"/>
    <path id="Path_262" data-name="Path 262" class="cls-5" d="M1248.234,1591.836c0-4.854-1.311-8.789-2.929-8.789a8.789,8.789,0,1,0,0,17.578c1.618,0,2.929-3.934,2.929-8.789Zm0,0"/>
    <path id="Path_263" data-name="Path 263" class="cls-1" d="M1287.916,1600.625h-5.859l5.859,32.717a2.932,2.932,0,0,0,5.86,0v-26.857a5.877,5.877,0,0,0-5.86-5.86Zm0,0"/>
    <path id="Path_264" data-name="Path 264" class="cls-2" d="M1267.278,1600.625h5.86l-5.86,32.62a2.93,2.93,0,0,1-5.859,0v-26.76a5.877,5.877,0,0,1,5.859-5.86Zm0,0"/>
    <path id="Path_265" data-name="Path 265" class="cls-3" d="M1287.916,1606.485a5.876,5.876,0,0,0-5.859-5.86h-8.919a5.877,5.877,0,0,0-5.86,5.86v55.29a3.7,3.7,0,0,0,7.39,0v-28.53h5.859v28.53a3.695,3.695,0,0,0,7.389,0Zm0,0"/>
    <path id="Path_266" data-name="Path 266" class="cls-6" d="M1277.661,1577.188v17.578a8.789,8.789,0,0,0,0-17.578Zm0,0"/>
    <path id="Path_267" data-name="Path 267" class="cls-4" d="M1280.591,1585.977c0-4.854-1.311-8.789-2.93-8.789a8.789,8.789,0,1,0,0,17.578c1.619,0,2.93-3.935,2.93-8.789Zm0,0"/>
    <path id="Path_268" data-name="Path 268" d="M1320.273,1605.02h-20.638a7.32,7.32,0,0,1-11.719-5.859h-20.638a7.323,7.323,0,0,1-11.718,5.859h-20.638a7.333,7.333,0,0,0-7.325,7.324v23.83a4.394,4.394,0,0,0,5.86,4.143v21.458a5.159,5.159,0,0,0,10.319,0,1.465,1.465,0,0,0-2.93,0,2.23,2.23,0,0,1-4.46,0v-49.431a1.464,1.464,0,1,0-2.929,0v23.83a1.465,1.465,0,1,1-2.93,0v-23.83a4.4,4.4,0,0,1,4.4-4.394h20.638a4.4,4.4,0,0,1,4.394,4.394v23.928a1.468,1.468,0,0,1-2.93,0v-23.928a1.465,1.465,0,1,0-2.929,0v49.431a2.23,2.23,0,0,1-4.46,0v-25.6a1.465,1.465,0,0,0-1.465-1.464h-5.859a1.464,1.464,0,0,0-1.465,1.464v19.741a1.465,1.465,0,0,0,2.93,0v-18.276h2.929v24.136a5.16,5.16,0,0,0,10.319,0v-21.443a4.582,4.582,0,0,0,1.465.237,4.32,4.32,0,0,0,4.263-3.231,4.382,4.382,0,0,0,3.061.049v24.388a5.159,5.159,0,0,0,10.319,0V1634.71h2.93v27.065a5.159,5.159,0,0,0,10.319,0V1637.4a4.638,4.638,0,0,0,3.089-.057,4.392,4.392,0,0,0,5.7,2.972v21.458a5.159,5.159,0,0,0,10.319,0v-24.136h2.93v24.136a5.16,5.16,0,0,0,10.319,0v-21.443a4.578,4.578,0,0,0,1.465.237,4.3,4.3,0,0,0,4.394-4.3v-23.928a7.332,7.332,0,0,0-7.324-7.324Zm-27.962,28.322a1.468,1.468,0,0,1-2.93,0v-26.857a1.465,1.465,0,0,0-2.93,0v55.29a2.23,2.23,0,0,1-4.459,0v-28.53a1.465,1.465,0,0,0-1.465-1.465h-5.859a1.465,1.465,0,0,0-1.465,1.465v28.53a2.23,2.23,0,0,1-4.46,0v-55.29a1.465,1.465,0,0,0-2.93,0v26.76a1.464,1.464,0,1,1-2.929,0v-26.76a4.4,4.4,0,0,1,4.394-4.4h20.638a4.4,4.4,0,0,1,4.4,4.4Zm32.357,2.93a1.468,1.468,0,0,1-2.93,0v-23.928a1.465,1.465,0,0,0-2.93,0v49.431a2.229,2.229,0,0,1-4.459,0v-25.6a1.466,1.466,0,0,0-1.465-1.464h-5.86a1.464,1.464,0,0,0-1.464,1.464v25.6a2.23,2.23,0,0,1-4.46,0v-49.431a1.465,1.465,0,0,0-2.93,0v23.83a1.465,1.465,0,1,1-2.929,0v-23.83a4.4,4.4,0,0,1,4.394-4.394h20.638a4.4,4.4,0,0,1,4.4,4.394Zm0,0"/>
    <path id="Path_269" data-name="Path 269" d="M1309.89,1602.09a10.253,10.253,0,1,0-10.254-10.254,10.266,10.266,0,0,0,10.254,10.254Zm0-17.578a7.325,7.325,0,1,1-7.324,7.324,7.332,7.332,0,0,1,7.324-7.324Zm0,0"/>
    <path id="Path_270" data-name="Path 270" d="M1245.305,1602.09a10.253,10.253,0,1,0-10.254-10.254,10.265,10.265,0,0,0,10.254,10.254Zm0-17.578a7.325,7.325,0,1,1-7.325,7.324,7.333,7.333,0,0,1,7.325-7.324Zm0,0"/>
    <path id="Path_271" data-name="Path 271" d="M1277.661,1596.231a10.254,10.254,0,1,0-10.254-10.254,10.266,10.266,0,0,0,10.254,10.254Zm0-17.578a7.324,7.324,0,1,1-7.324,7.324,7.333,7.333,0,0,1,7.324-7.324Zm0,0"/>
    <path id="Path_272" data-name="Path 272" d="M1277.661,1572.793a1.464,1.464,0,0,0,1.465-1.464v-2.93a1.464,1.464,0,1,0-2.929,0v2.93a1.465,1.465,0,0,0,1.464,1.464Zm0,0"/>
    <path id="Path_273" data-name="Path 273" d="M1269.069,1574.023a1.465,1.465,0,0,0,2.537-1.464l-1.465-2.538a1.465,1.465,0,0,0-2.537,1.465Zm0,0"/>
    <path id="Path_274" data-name="Path 274" d="M1284.253,1574.559a1.464,1.464,0,0,0,2-.536l1.465-2.537a1.465,1.465,0,1,0-2.537-1.465l-1.465,2.538a1.463,1.463,0,0,0,.536,2Zm0,0"/>
  </g>
</svg>
