<svg xmlns="http://www.w3.org/2000/svg" width="370" height="310.825" viewBox="0 0 370 310.825">
  <defs>
    <style>
      .cls-1 {
        fill: none;
      }

      .cls-2 {
        fill: #e8a96b;
      }

      .cls-3, .cls-9 {
        fill: #fe0709;
      }

      .cls-4 {
        fill: #c2000b;
      }

      .cls-5 {
        fill: #d85425;
      }

      .cls-6 {
        fill: #c12c14;
      }

      .cls-7 {
        fill: #7f2412;
      }

      .cls-8 {
        fill: #a5111f;
      }

      .cls-9 {
        fill-rule: evenodd;
      }

      .cls-10 {
        fill: #fff;
      }
    </style>
  </defs>
  <g id="Group_47" data-name="Group 47" transform="translate(-214.962 -2059.312)">
    <g id="Group_41" data-name="Group 41">
      <circle id="Ellipse_7" data-name="Ellipse 7" class="cls-1" cx="36.809" cy="36.809" r="36.809" transform="translate(273.652 2105.521)"/>
      <path id="Path_63" data-name="Path 63" class="cls-1" d="M462.084,2270.057a76.731,76.731,0,1,0-68.759-42.8q1.282,2.234,2.447,4.538A76.7,76.7,0,0,0,462.084,2270.057Z"/>
      <path id="Path_64" data-name="Path 64" class="cls-1" d="M310.461,2225.348a49.331,49.331,0,1,0,44.653,28.45q-1.368-2.412-2.631-4.889A49.3,49.3,0,0,0,310.461,2225.348Z"/>
      <path id="Path_65" data-name="Path 65" class="cls-2" d="M352.483,2248.909q1.26,2.478,2.631,4.889A49.22,49.22,0,0,0,352.483,2248.909Z"/>
      <path id="Path_66" data-name="Path 66" class="cls-2" d="M462.084,2070.508a122.352,122.352,0,0,0-80.09,29.763,82.784,82.784,0,0,1-11.968,99.8,96.187,96.187,0,0,1,23.3,27.186,77.1,77.1,0,1,1,2.447,4.538,95.1,95.1,0,0,1,6.539,68.917,122.866,122.866,0,1,0,59.773-230.206Z"/>
      <path id="Path_67" data-name="Path 67" class="cls-3" d="M352.483,2248.909a121.988,121.988,0,0,1-10.556-29.772,82.549,82.549,0,0,1-31.466,6.211A49.3,49.3,0,0,1,352.483,2248.909Z"/>
      <path id="Path_68" data-name="Path 68" class="cls-4" d="M393.325,2227.259c.764,1.545,1.584,3.055,2.447,4.538Q394.61,2229.491,393.325,2227.259Z"/>
      <path id="Path_69" data-name="Path 69" class="cls-3" d="M355.114,2253.8a49.281,49.281,0,1,1-44.653-28.45,82.761,82.761,0,0,1-59.564-25.275,95.465,95.465,0,1,0,151.414,100.641A123.784,123.784,0,0,1,355.114,2253.8Z"/>
      <path id="Path_70" data-name="Path 70" class="cls-4" d="M395.772,2231.8c-.863-1.483-1.683-2.993-2.447-4.538a96.187,96.187,0,0,0-23.3-27.186,83.311,83.311,0,0,1-28.1,19.064,121.988,121.988,0,0,0,10.556,29.772,49.22,49.22,0,0,1,2.631,4.889,123.784,123.784,0,0,0,47.2,46.916,95.1,95.1,0,0,0-6.539-68.917Z"/>
      <path id="Path_71" data-name="Path 71" class="cls-5" d="M273.652,2142.33a36.809,36.809,0,1,1,36.809,36.809,95.1,95.1,0,0,1,29.125,4.558,122.709,122.709,0,0,1,42.408-83.426,82.979,82.979,0,1,0-131.1,99.8,95.012,95.012,0,0,1,59.564-20.934A36.851,36.851,0,0,1,273.652,2142.33Z"/>
      <path id="Path_72" data-name="Path 72" class="cls-4" d="M339.586,2183.7a95.347,95.347,0,0,1,30.44,16.376,82.784,82.784,0,0,0,11.968-99.8A122.709,122.709,0,0,0,339.586,2183.7Z"/>
      <path id="Path_73" data-name="Path 73" class="cls-6" d="M310.461,2225.348a82.549,82.549,0,0,0,31.466-6.211,122.914,122.914,0,0,1-2.722-25.75q0-4.891.381-9.69a95.244,95.244,0,0,0-88.689,16.376A82.761,82.761,0,0,0,310.461,2225.348Z"/>
      <path id="Path_74" data-name="Path 74" class="cls-7" d="M339.2,2193.387a122.914,122.914,0,0,0,2.722,25.75,83.311,83.311,0,0,0,28.1-19.064,95.347,95.347,0,0,0-30.44-16.376Q339.209,2188.494,339.2,2193.387Z"/>
    </g>
    <g id="Group_42" data-name="Group 42">
      <path id="Path_75" data-name="Path 75" class="cls-8" d="M425.177,2337.89h5.953v2.952a12.6,12.6,0,0,1,1.116-1.264,7.788,7.788,0,0,1,1.352-1.069,6.712,6.712,0,0,1,1.645-.738,7.015,7.015,0,0,1,2.036-.273,6.708,6.708,0,0,1,5.268,2.076,8.262,8.262,0,0,1,1.86,5.718v13.591h-5.953v-11.74a4.747,4.747,0,0,0-.94-3.2,3.343,3.343,0,0,0-2.663-1.08,3.526,3.526,0,0,0-2.722,1.08,4.558,4.558,0,0,0-1,3.2v11.74h-5.953Z"/>
      <path id="Path_76" data-name="Path 76" class="cls-8" d="M453.18,2359.274a9.321,9.321,0,0,1-2.8-.411,6.558,6.558,0,0,1-2.291-1.234,5.893,5.893,0,0,1-1.547-2.017,6.353,6.353,0,0,1-.568-2.761v-.078a6.586,6.586,0,0,1,.627-2.977,5.721,5.721,0,0,1,1.743-2.076,7.826,7.826,0,0,1,2.663-1.233,13.286,13.286,0,0,1,3.427-.412,14.716,14.716,0,0,1,2.8.235,17.587,17.587,0,0,1,2.331.627v-.352a3.567,3.567,0,0,0-1.136-2.859,5.034,5.034,0,0,0-3.368-.98,13.97,13.97,0,0,0-3.035.294,20.532,20.532,0,0,0-2.762.842l-1.488-4.543a23.347,23.347,0,0,1,3.6-1.214,19,19,0,0,1,4.543-.47,12.862,12.862,0,0,1,4.211.607A7.482,7.482,0,0,1,463.01,2340a7.063,7.063,0,0,1,1.724,2.879,12.439,12.439,0,0,1,.548,3.818v12.181h-5.758v-2.272a8.273,8.273,0,0,1-2.624,1.939A8.648,8.648,0,0,1,453.18,2359.274Zm3.525-23.617a7.782,7.782,0,0,1-5.111-1.625,6.43,6.43,0,0,1-2.253-4.6h4a3.715,3.715,0,0,0,1.116,1.7,4.248,4.248,0,0,0,4.5,0,3.715,3.715,0,0,0,1.116-1.7h3.995a6.433,6.433,0,0,1-2.252,4.6A7.788,7.788,0,0,1,456.7,2335.657Zm-1.724,19.505a5.266,5.266,0,0,0,3.388-1.018,3.251,3.251,0,0,0,1.273-2.664v-1.057a9.132,9.132,0,0,0-1.743-.568,9.406,9.406,0,0,0-2.056-.216,5.311,5.311,0,0,0-3.016.745,2.442,2.442,0,0,0-1.1,2.154v.078a2.2,2.2,0,0,0,.9,1.88A3.853,3.853,0,0,0,454.981,2355.162Z"/>
      <path id="Path_77" data-name="Path 77" class="cls-8" d="M468.062,2337.89h5.953v2.952a12.485,12.485,0,0,1,1.117-1.264,7.78,7.78,0,0,1,1.351-1.069,6.65,6.65,0,0,1,1.664-.738,7.223,7.223,0,0,1,2.057-.273,7.137,7.137,0,0,1,3.583.856,5.817,5.817,0,0,1,2.331,2.449,9.542,9.542,0,0,1,3.054-2.469,8.525,8.525,0,0,1,3.838-.836,6.88,6.88,0,0,1,5.21,1.959,8.007,8.007,0,0,1,1.88,5.757v13.669h-5.954v-11.74a4.889,4.889,0,0,0-.9-3.2,3.175,3.175,0,0,0-2.584-1.08,3.355,3.355,0,0,0-2.644,1.08,4.681,4.681,0,0,0-.96,3.2v11.74H481.1v-11.74a4.9,4.9,0,0,0-.9-3.2,3.179,3.179,0,0,0-2.586-1.08,3.354,3.354,0,0,0-2.643,1.08,4.681,4.681,0,0,0-.96,3.2v11.74h-5.953Z"/>
    </g>
    <g id="Group_46" data-name="Group 46">
      <g id="Group_44" data-name="Group 44">
        <path id="Path_78" data-name="Path 78" class="cls-9" d="M462.638,2223.439a35.223,35.223,0,1,0-35.23-35.215A35.284,35.284,0,0,0,462.638,2223.439Z"/>
        <g id="Group_43" data-name="Group 43">
          <path id="Path_79" data-name="Path 79" class="cls-10" d="M453.987,2157.916l-.1-.164-.7.194-.075.82-.179,2.312.179-.06.448-.119.044-.641.388-.1.671-.179.343.552.582-.164.075-.015-.075-.1Zm0,1.715-.358.09.06-1.223.3.462.373.567Z"/>
          <path id="Path_80" data-name="Path 80" class="cls-10" d="M447.738,2163.465l.044.089.552-.3-.537-.94.627-.343a.866.866,0,0,0,.507-.686,1.11,1.11,0,0,0-.119-.582.909.909,0,0,0-.567-.492.84.84,0,0,0-.507.015c-.075.03-.134.06-.209.09l-.865.477-.328.179.328.6Zm-.164-2.581a.543.543,0,0,1,.164-.074.371.371,0,0,1,.238-.045.36.36,0,0,1,.269.209.57.57,0,0,1,.089.268.5.5,0,0,1-.268.358l-.328.179-.179.09-.433-.746Z"/>
          <path id="Path_81" data-name="Path 81" class="cls-10" d="M438.818,2169.893l.373.3.507.418.388-.492-.865-.686-.03-.074-.791-1.865-.447.552.641,1.253-1.014-.239-.388-.089-.462.567.85.149Z"/>
          <path id="Path_82" data-name="Path 82" class="cls-10" d="M439.609,2206.436l.224-.731-.3-.433-.343-.015-.418-.015.269.373.149.015.283.015-.134.4Z"/>
          <path id="Path_83" data-name="Path 83" class="cls-10" d="M456.031,2160.2l.567-.089-.358-2.088,1.566,1.865.149-.015.463-.09-.463-2.536-.06-.373-.567.1.343,2.029-1.522-1.82-.567.089-.075.015.075.432Z"/>
          <path id="Path_84" data-name="Path 84" class="cls-10" d="M441.026,2167.373a1.461,1.461,0,0,0,.8.328.485.485,0,0,0,.209,0,1.1,1.1,0,0,0,.433-.12,1.8,1.8,0,0,0,.343-.238l.014-.015a1.318,1.318,0,0,0,.359-.522.991.991,0,0,0,.059-.3,1.128,1.128,0,0,0-.059-.492,2.039,2.039,0,0,0-.18-.358l-.179.164-.268.254a.79.79,0,0,1,.119.462.669.669,0,0,1-.208.373l-.015.015a.684.684,0,0,1-.418.194,1.175,1.175,0,0,1-.209-.03,1.213,1.213,0,0,1-.6-.4,1.436,1.436,0,0,1-.209-.238.923.923,0,0,1-.179-.537.611.611,0,0,1,.179-.448l.03-.029a.632.632,0,0,1,.492-.194.723.723,0,0,1,.343.119l.149-.149.3-.269a.843.843,0,0,0-.3-.209,1.624,1.624,0,0,0-.4-.089,1.28,1.28,0,0,0-.611.149,1.842,1.842,0,0,0-.343.254,1.233,1.233,0,0,0-.448.954,1.652,1.652,0,0,0,.522,1.119C440.847,2167.208,440.936,2167.3,441.026,2167.373Z"/>
          <path id="Path_85" data-name="Path 85" class="cls-10" d="M450.885,2161.943l-.477-1.238,1.089-.418.477,1.238.059-.015.522-.208-.522-1.372-.537-1.387-.582.224.4,1.044-1.089.417-.4-1.044-.582.224,1.059,2.759Z"/>
          <path id="Path_86" data-name="Path 86" class="cls-10" d="M442.458,2161.809l.015-.015.149-.134a.152.152,0,0,1-.03-.149.471.471,0,0,1,.074-.149.162.162,0,0,1,.12-.03h.044l.09.045a.291.291,0,0,1,.06.119.161.161,0,0,1,0,.119,1.169,1.169,0,0,1,.029.119.242.242,0,0,0,.045.09l.135.149.178-.179-.015-.015c-.029-.015-.044-.045-.074-.074a.213.213,0,0,1-.03-.09.065.065,0,0,1,0-.074v-.1a.351.351,0,0,0-.015-.179c-.015-.015-.03-.045-.044-.06a.3.3,0,0,1-.06-.074.371.371,0,0,0-.284-.1h-.015a.5.5,0,0,0-.3.165.106.106,0,0,0-.059.059.433.433,0,0,0-.12.269.314.314,0,0,0,.09.283Z"/>
          <path id="Path_87" data-name="Path 87" class="cls-10" d="M442.86,2162.092l-.03.03-.343.328.09.76.253-.253.075-.074-.045-.418.328.045.1.015.194-.194.134-.134-.134-.015-.3-.045Z"/>
          <path id="Path_88" data-name="Path 88" class="cls-10" d="M453.2,2157.648l.149-.4.358.253.283-.089.164-.045-.164-.1-.462-.343-.418.134-.075.015-.283.731.358-.119Z"/>
          <path id="Path_89" data-name="Path 89" class="cls-10" d="M453.987,2156.887l.328-.1-.328-.269-.224-.194-.612.179.76.4Z"/>
          <path id="Path_90" data-name="Path 90" class="cls-10" d="M443.352,2162.838a1.85,1.85,0,0,0-.163.164,1.647,1.647,0,0,0-.209.254,2.19,2.19,0,0,0-.15.328,1.67,1.67,0,0,0-.044.388,1.171,1.171,0,0,0,.044.313,1.909,1.909,0,0,0,.359.656,2.9,2.9,0,0,0,.3.314,1.457,1.457,0,0,0,.492.3.25.25,0,0,0,.075.03,1.281,1.281,0,0,0,.745-.015,1.6,1.6,0,0,0,.493-.269,1.385,1.385,0,0,0,.373-.4,1.188,1.188,0,0,0,.193-.717,1.744,1.744,0,0,0-.4-.984,1.763,1.763,0,0,0-.865-.626,1.206,1.206,0,0,0-.612-.015.456.456,0,0,0-.134.029,3.658,3.658,0,0,0-.358.165Zm.329.418a.894.894,0,0,1,.3-.149,1.443,1.443,0,0,1,.253-.015,1.415,1.415,0,0,1,1.03,1.312.8.8,0,0,1-.836.642.951.951,0,0,1-.447-.179,1.831,1.831,0,0,1-.3-.3,1.679,1.679,0,0,1-.194-.313.784.784,0,0,1-.09-.507.717.717,0,0,1,.09-.269A.879.879,0,0,1,443.681,2163.256Z"/>
          <path id="Path_91" data-name="Path 91" class="cls-10" d="M492.439,2182.855l-.82-.12.119.642.641.089.06.224.164.85-.164.09-.4.208.12.657.283-.164,1.1-.642,1.342-.775-.134-.7-1.208-.179Zm1.1,1.163-.477.254-.15-.746.627.074.611.075Z"/>
          <path id="Path_92" data-name="Path 92" class="cls-10" d="M490.709,2169.52l-.388-.507-.119.85.253.328Z"/>
          <path id="Path_93" data-name="Path 93" class="cls-10" d="M490.634,2172.146l-.328-.567-1.253.716-.985.567-.343.194.284.507.059-.044.985-.552.805-.462-.805,1.372-.433.731.313.537.12-.074,1.924-1.089.537-.313-.283-.507-.254.149-1.551.88Z"/>
          <path id="Path_94" data-name="Path 94" class="cls-10" d="M489.262,2169.431l.433.015-.12.417.283.373.194-.746-.3-.4-.7-.015h-.075l.075.09Z"/>
          <path id="Path_95" data-name="Path 95" class="cls-10" d="M490.977,2174.92a1.8,1.8,0,0,0-.462.149,1.641,1.641,0,0,0-.9.865,1.27,1.27,0,0,0,.06,1.014.954.954,0,0,0,.4.492,1.8,1.8,0,0,0,.4.164l-.313.209.179.373.626-.283.836-.388-.537-1.119-.3.134-.164.075.164.328.135.3c-.045,0-.09.015-.135.015a.889.889,0,0,1-.4-.044.694.694,0,0,1-.358-.358.746.746,0,0,1-.06-.612,1.019,1.019,0,0,1,.627-.582.8.8,0,0,1,.193-.089,1.107,1.107,0,0,1,.657-.03.762.762,0,0,1,.477.433.644.644,0,0,1,.03.522.562.562,0,0,1-.194.268l.253.552a.785.785,0,0,0,.239-.149,1.045,1.045,0,0,0,.224-.4,1.345,1.345,0,0,0-.1-1.029.885.885,0,0,0-.12-.239,1.316,1.316,0,0,0-.79-.566A1.456,1.456,0,0,0,490.977,2174.92Z"/>
          <path id="Path_96" data-name="Path 96" class="cls-10" d="M486.786,2169.774a1.5,1.5,0,0,0-.418.626,1.28,1.28,0,0,0,0,.746,1.518,1.518,0,0,0,.239.492c.06.075.119.135.179.209a2.1,2.1,0,0,0,.224.164,1.27,1.27,0,0,0,.716.224,1.351,1.351,0,0,0,.343-.045,1.945,1.945,0,0,0,.656-.328,2.039,2.039,0,0,0,.329-.283,1.65,1.65,0,0,0,.342-.537,1.265,1.265,0,0,0,0-.746,1.5,1.5,0,0,0-.238-.492.417.417,0,0,0-.1-.12,1.667,1.667,0,0,0-.3-.268,1.341,1.341,0,0,0-.686-.224h-.03a1.671,1.671,0,0,0-1,.373A1.718,1.718,0,0,0,486.786,2169.774Zm.627.283a1.136,1.136,0,0,1,.656-.253.72.72,0,0,1,.179,0,.738.738,0,0,1,.477.313.776.776,0,0,1,.149.537,1.144,1.144,0,0,1-.522.716,2.663,2.663,0,0,1-.283.164.925.925,0,0,1-.552.09.717.717,0,0,1-.477-.3.691.691,0,0,1-.15-.552A1.153,1.153,0,0,1,487.413,2170.057Z"/>
          <path id="Path_97" data-name="Path 97" class="cls-10" d="M492.439,2185.838l-.343.03.059.627.284-.03,1.1-.1,1.581-.135-.059-.611-1.521.134Z"/>
          <path id="Path_98" data-name="Path 98" class="cls-10" d="M490.977,2179.946l-.045.015.045.134.119.418,1.342-.373.7-.194-.7.716-1.014,1.014.179.6.835-.239,1.1-.313.924-.269-.164-.552-.761.208-1.1.313-.134.045.134-.135,1.1-1.118.432-.448-.179-.627-.254.075-1.1.313Z"/>
          <path id="Path_99" data-name="Path 99" class="cls-10" d="M493.438,2190.014a.567.567,0,1,0,0,1.134h.105a.579.579,0,0,0,0-1.134Z"/>
          <path id="Path_100" data-name="Path 100" class="cls-10" d="M486.667,2203.557l-.313.567.343.626.089-.149.12-.209-.12-.4Z"/>
          <path id="Path_101" data-name="Path 101" class="cls-10" d="M435.522,2172.295l.492-.746.164.1,1.4.895.492.328.343-.522-.835-.537-1.223-.791.477-.746L436.4,2170l-.223.343-.716,1.089-.388.582.388.253Z"/>
          <path id="Path_102" data-name="Path 102" class="cls-10" d="M483.341,2163.136l.478-.03.313-.015h.075l-.075-.075-.313-.268-.089-.09-.686.194h-.015l.015.015Z"/>
          <path id="Path_103" data-name="Path 103" class="cls-10" d="M470.648,2159.124l1.119.3-.343,1.283.6.164.776-2.864-.6-.149-.3,1.074-1.118-.3.283-1.074-.6-.164-.776,2.849.611.164Z"/>
          <path id="Path_104" data-name="Path 104" class="cls-10" d="M467.874,2159.974a1.212,1.212,0,0,0,.924-.149,1.366,1.366,0,0,0,.537-.7l-.611-.1a.721.721,0,0,1-.3.358.656.656,0,0,1-.447.074.641.641,0,0,1-.507-.4,1.383,1.383,0,0,1-.045-.716,1.113,1.113,0,0,1,.4-.776.61.61,0,0,1,.507-.119.64.64,0,0,1,.462.283.79.79,0,0,1,.09.328l.611.1a.966.966,0,0,0-.179-.731,1.483,1.483,0,0,0-1.924-.3,1.663,1.663,0,0,0-.6,1.088,1.594,1.594,0,0,0,.179,1.208A1.232,1.232,0,0,0,467.874,2159.974Z"/>
          <path id="Path_105" data-name="Path 105" class="cls-10" d="M475.018,2160.407l.239-.537.253,2.416.567.253,1.1-2.446.1-.254-.1-.045-.418-.194-.865,1.879-.224-2.357-.6-.269-.06.119-1.164,2.58.537.239Z"/>
          <path id="Path_106" data-name="Path 106" class="cls-10" d="M484.131,2167.939l-.3.239.3.343.552.641a1.059,1.059,0,0,0,.97.4c.029,0,.059-.015.089-.015a1.917,1.917,0,0,0,.925-.477.845.845,0,0,0,.119-.1,1.521,1.521,0,0,0,.433-.671,1.035,1.035,0,0,0-.269-1.059l-.164-.194-.7-.8-.432.373-.433.373-.119-.135-.4.328.134.15Zm1.1-.149.418.492.029.03.388-.343-.417-.477-.03-.045.03-.015.447-.388.388.448a.523.523,0,0,1,.179.418,1.019,1.019,0,0,1-.448.715,1.487,1.487,0,0,1-.566.328h-.045a.558.558,0,0,1-.582-.178l-.4-.463Z"/>
          <path id="Path_107" data-name="Path 107" class="cls-10" d="M464.07,2159.467l.254-.581.492.029.611.045.149.612.672.059-.836-3.027-.6-.045H464.7l-.91,2.058-.373.805.373.03Zm.746-1.79.179-.432.3,1.193-.477-.03-.284-.03Z"/>
          <path id="Path_108" data-name="Path 108" class="cls-10" d="M464.577,2159.587l-.045.477.284.015.239.03.044-.477-.283-.03Z"/>
          <path id="Path_109" data-name="Path 109" class="cls-10" d="M461.609,2159.572a1.185,1.185,0,0,0,.612-.179,1.922,1.922,0,0,0,.3-.3l.074.373.418-.015-.03-1.6-1.238.03v.507l.686-.015a.863.863,0,0,1-.238.478.669.669,0,0,1-.463.179.847.847,0,0,1-.6-.194,1.052,1.052,0,0,1-.284-.805,1.149,1.149,0,0,1,.239-.821.764.764,0,0,1,.6-.253.654.654,0,0,1,.493.178.473.473,0,0,1,.164.284h.626a.96.96,0,0,0-.328-.656,1.441,1.441,0,0,0-1-.329,1.39,1.39,0,0,0-1.1.508,1.632,1.632,0,0,0-.328,1.089,1.578,1.578,0,0,0,.432,1.163A1.343,1.343,0,0,0,461.609,2159.572Z"/>
          <path id="Path_110" data-name="Path 110" class="cls-10" d="M483.937,2164.255l-.119.134-.776.91-.806.955-.224.253.224.194.253.209.552-.656.776-.91.313-.358.283-.343-.283-.239Z"/>
          <path id="Path_111" data-name="Path 111" class="cls-10" d="M477.106,2162.779a.737.737,0,0,0,.075.193,1.242,1.242,0,0,0,.566.612,1.085,1.085,0,0,0,.627.149,1.534,1.534,0,0,0,.417-.1l-.134.358.373.193.776-1.387-1.089-.6-.239.432.6.329a.86.86,0,0,1-.448.3.675.675,0,0,1-.507-.075.888.888,0,0,1-.417-.462,1.126,1.126,0,0,1,.164-.835,1.256,1.256,0,0,1,.626-.6.748.748,0,0,1,.642.075.588.588,0,0,1,.328.4.413.413,0,0,1,0,.328l.552.3a.115.115,0,0,0,.029-.075.854.854,0,0,0,.015-.641l-.015-.03a1.373,1.373,0,0,0-.686-.746,1.4,1.4,0,0,0-1.208-.119,1.677,1.677,0,0,0-.835.775,1.611,1.611,0,0,0-.134.3A1.431,1.431,0,0,0,477.106,2162.779Z"/>
          <path id="Path_112" data-name="Path 112" class="cls-10" d="M479.985,2164.33a1.4,1.4,0,0,0,.059.432,2.74,2.74,0,0,0,.149.284,1.239,1.239,0,0,0,.373.417,1.612,1.612,0,0,0,.478.254l.179.045a1.87,1.87,0,0,0,.3.015.929.929,0,0,0,.283-.045,1.334,1.334,0,0,0,.433-.224,1.859,1.859,0,0,0,.418-.418,1.706,1.706,0,0,0,.388-.79.806.806,0,0,0,.029-.179.851.851,0,0,0-.029-.269,1.137,1.137,0,0,0-.18-.447,1.536,1.536,0,0,0-.358-.4,2.828,2.828,0,0,0-.268-.164,1.085,1.085,0,0,0-.239-.1,1.344,1.344,0,0,0-.477-.06.832.832,0,0,0-.268.045.049.049,0,0,0-.03.015,1.722,1.722,0,0,0-.821.611,2.327,2.327,0,0,0-.358.642A1.408,1.408,0,0,0,479.985,2164.33Zm.91-.6a1.671,1.671,0,0,1,.328-.328,1.04,1.04,0,0,1,.3-.134.257.257,0,0,1,.105-.015.712.712,0,0,1,.551.164c.015.015.045.03.06.059a.688.688,0,0,1,.224.418,1.016,1.016,0,0,1-.224.716.456.456,0,0,1-.074.1,1.146,1.146,0,0,1-.642.463.187.187,0,0,1-.09.015.489.489,0,0,1-.208,0,.662.662,0,0,1-.328-.149.73.73,0,0,1-.3-.493A1.083,1.083,0,0,1,480.895,2163.733Z"/>
          <path id="Path_113" data-name="Path 113" class="cls-10" d="M445.158,2214.162l1.223.791.283-.433-1.208-.791.343-.522.865.567.447.283.284-.433-.731-.477-1.1-.716-1.581,2.416-.045.06.045.03,1.864,1.208.283-.448-1.387-.9Z"/>
          <path id="Path_114" data-name="Path 114" class="cls-10" d="M473.392,2215.937l-2.282.82.179.492.85-.3.85,2.282.582-.209-.85-2.3.85-.3Z"/>
          <path id="Path_115" data-name="Path 115" class="cls-10" d="M469.246,2218.771l.134.522,1.119-.283-.119-.522Z"/>
          <path id="Path_116" data-name="Path 116" class="cls-10" d="M475.6,2215.251a.864.864,0,0,0-.582.015l-.134.044-1.238.582,1.253,2.67.119-.045.448-.209-.448-.954v-.03l.641-.283a.891.891,0,0,0,.552-.671.986.986,0,0,0-.089-.582A.973.973,0,0,0,475.6,2215.251Zm-.284,1.372-.3.149-.224.1-.373-.791.463-.209c.045-.015.089-.044.134-.059a.667.667,0,0,1,.283-.03c.1.015.179.1.254.224a.792.792,0,0,1,.06.283A.407.407,0,0,1,475.316,2216.623Z"/>
          <path id="Path_117" data-name="Path 117" class="cls-10" d="M481.223,2205.705h1.968v-34.38h-7.546l.029,25.938-.656-.686-3.073-3.326v-14.185c0-3.311-.671-5.712-1.983-7.2-1.074-1.193-2.775-1.894-5.146-2.133-.328-.03-.671-.06-1.029-.074-.269-.015-.552-.015-.836-.015h-8.979v4.25l-.865-.924-1.074-1.178-.447-.463h-9.128v34.38h7.756l.029-26.191,1.79,1.894,1.074,1.163.865.91v24.357h8.457c.478,0,.925-.015,1.358-.03l1.029-.089a8.242,8.242,0,0,0,4.982-2.044,7.234,7.234,0,0,0,1.76-3.49l3.311,3.52h6.354Zm-17.019-5.414a2.3,2.3,0,0,1-.417,1.506,2.434,2.434,0,0,1-.224.194,3.4,3.4,0,0,1-1.969.463v-10.859l2.193,2.312.417.462Zm0-15.378-.417-.462-2.193-2.342v-7.294a3.6,3.6,0,0,1,2.044.418.618.618,0,0,1,.149.134,2.644,2.644,0,0,1,.417,1.73Z"/>
          <path id="Path_118" data-name="Path 118" class="cls-10" d="M480.864,2210.881l.358.089.06.015.238-.179.134-.1-.134-.03-.3-.075-.313-.09-.4.313v.776l.357-.283Z"/>
          <path id="Path_119" data-name="Path 119" class="cls-10" d="M467.471,2217.548a.4.4,0,0,1-.1.358.829.829,0,0,1-.538.239l-.074.015.045.4.7-.1.283,2,.567-.074-.4-2.894Z"/>
          <path id="Path_120" data-name="Path 120" class="cls-10" d="M459.386,2219.919l1.134.164.075-.522-1.134-.164Z"/>
          <path id="Path_121" data-name="Path 121" class="cls-10" d="M465.159,2219.785a2.4,2.4,0,0,0,.06-.611,1.747,1.747,0,0,0-.329-1.014.367.367,0,0,0-.074-.09,1.3,1.3,0,0,0-.537-.328,1.867,1.867,0,0,0-.492-.075h-.06a1.461,1.461,0,0,0-.552.12,1.286,1.286,0,0,0-.582.462,1.676,1.676,0,0,0-.238,1.029,1.74,1.74,0,0,0,.313,1.014,1.326,1.326,0,0,0,.626.418,1.7,1.7,0,0,0,.493.075h.059a1.384,1.384,0,0,0,.343-.045,2.119,2.119,0,0,0,.418-.179l.209.194.149.119.313-.343-.343-.3A1.068,1.068,0,0,0,465.159,2219.785Zm-.686.045-.313-.268-.314.328.3.283a.54.54,0,0,1-.165.06.523.523,0,0,1-.163.029h-.03a.674.674,0,0,1-.507-.193,1.1,1.1,0,0,1-.314-.821,1.124,1.124,0,0,1,.254-.835.834.834,0,0,1,.522-.224h.045a.728.728,0,0,1,.492.194,1.083,1.083,0,0,1,.313.8A1.34,1.34,0,0,1,464.473,2219.83Z"/>
          <path id="Path_122" data-name="Path 122" class="cls-10" d="M465.8,2220.053l.045.6.627-.045-.06-.6Z"/>
          <path id="Path_123" data-name="Path 123" class="cls-10" d="M481.283,2210.358l.238-.179.09-.074-.09-.03-.3-.119-.283-.09-.507.388.79.089Z"/>
          <path id="Path_124" data-name="Path 124" class="cls-10" d="M492.439,2197.845l-1.462-.478-.045-.015-.179.552.224.074,1.462.477.283.089-.283.06-1.462.3-.6.119-.209.626.806.254,1.462.462.582.194.179-.552-.76-.254-1.268-.4,1.268-.254,1.1-.239h.03l.194-.582-.224-.075Z"/>
          <path id="Path_125" data-name="Path 125" class="cls-10" d="M488.069,2205.272l-.731-.463-.328.522,1.059.671.985.612.477.3.328-.537-.805-.493Z"/>
          <path id="Path_126" data-name="Path 126" class="cls-10" d="M489.516,2201.022l-.4.805,1.864,1.492.015.015h-.015l-1.924-.447-.418-.089-.388.805.806.388,1.879.91.045-.1.209-.418-.209-.1-1.924-.94-.1-.045.1.03,1.924.462.448.1.269-.552-.716-.566-1.282-1.014,1.282.612.955.477.253-.522-1.208-.6Z"/>
          <path id="Path_127" data-name="Path 127" class="cls-10" d="M490.977,2200.365l-.969-.433-.254.567,1.223.537,1.462.641.03.03.253-.567-.283-.134Z"/>
          <path id="Path_128" data-name="Path 128" class="cls-10" d="M458.044,2216.772c-.03.03-.059.06-.09.06,0,.015,0,.015-.014.015a.505.505,0,0,0-.09.089.141.141,0,0,0-.044.075l-.045.194.193.045.045.014v-.029a.214.214,0,0,1,.03-.09c.015-.044.03-.075.06-.089a.207.207,0,0,1,.06-.045c.044-.015.074-.03.074-.045a.314.314,0,0,0,.149-.119.508.508,0,0,0,.06-.149.42.42,0,0,0-.06-.3.648.648,0,0,0-.313-.179c-.03,0-.074-.015-.1-.015a.6.6,0,0,0-.283.045.361.361,0,0,0-.179.239l-.015.03.224.044a.181.181,0,0,1,.105-.1.263.263,0,0,1,.148-.015h.016a.174.174,0,0,1,.1.075.143.143,0,0,1,.015.134A.166.166,0,0,1,458.044,2216.772Z"/>
          <path id="Path_129" data-name="Path 129" class="cls-10" d="M492.439,2194.8l-.791-.179-.149.612.94.209.164.044-.164.731-.1.388-1.089-.254-.149.6,1.342.313,1.1.254.462.1.134-.6-.6-.149-.7-.149.268-1.134.433.1.865.194.134-.6-1-.239Z"/>
          <path id="Path_130" data-name="Path 130" class="cls-10" d="M481.223,2214.237l-1.178-1.79-.015-.03-.522.328.537.835.075.1-.075.045-.895.582-.626-.94-.522.343,1.626,2.476.417-.268.1-.075-.1-.149-.626-.955.626-.4.358-.224.731,1.1.089-.06.3-.194.134-.075-.134-.209Z"/>
          <path id="Path_131" data-name="Path 131" class="cls-10" d="M477.2,2216.847l.268.537.552-.283-.269-.537Z"/>
          <path id="Path_132" data-name="Path 132" class="cls-10" d="M483.43,2211.611a2.242,2.242,0,0,0-.387-.372,1.308,1.308,0,0,0-.478-.239,1.155,1.155,0,0,0-.328-.045,1.452,1.452,0,0,0-.418.075,1.71,1.71,0,0,0-.3.134,2.132,2.132,0,0,0-.179.134.4.4,0,0,0-.119.1,1.287,1.287,0,0,0-.254.313,1.268,1.268,0,0,0-.194.716,1.66,1.66,0,0,0,.433.97l.015.014a1.416,1.416,0,0,0,.3.3,1.532,1.532,0,0,0,.567.313c.045.015.1.015.149.03a1.388,1.388,0,0,0,.6-.075.525.525,0,0,0,.21-.09.848.848,0,0,0,.268-.178,1.178,1.178,0,0,0,.358-.4,1.136,1.136,0,0,0,.149-.343,1.1,1.1,0,0,0,.045-.388.822.822,0,0,0-.045-.253A1.9,1.9,0,0,0,483.43,2211.611Zm-.387,1.641c-.016.015-.031.045-.06.06a.771.771,0,0,1-.552.179c-.06-.015-.12-.03-.194-.045a1.413,1.413,0,0,1-.552-.432,2.566,2.566,0,0,1-.164-.254.891.891,0,0,1-.134-.567.651.651,0,0,1,.134-.328,1.474,1.474,0,0,1,.149-.164.793.793,0,0,1,.537-.164h.03a1.152,1.152,0,0,1,.716.462c.03.045.059.09.09.135a1.019,1.019,0,0,1,.223.686A.718.718,0,0,1,483.043,2213.252Z"/>
          <path id="Path_133" data-name="Path 133" class="cls-10" d="M486.518,2209.121l-.418.447a.767.767,0,0,1,.149.448.674.674,0,0,1-.194.4.663.663,0,0,1-.4.209.487.487,0,0,1-.209,0,1.36,1.36,0,0,1-.627-.358,1.151,1.151,0,0,1-.447-.761.588.588,0,0,1,.179-.477.649.649,0,0,1,.492-.239.68.68,0,0,1,.328.1l.284-.3.149-.149a1.113,1.113,0,0,0-.149-.12,1.183,1.183,0,0,0-.567-.134,1.417,1.417,0,0,0-.94.462.052.052,0,0,1-.015.03,1.416,1.416,0,0,0-.313.537,1.877,1.877,0,0,0-.045.418c.015.074.03.164.045.238a1.588,1.588,0,0,0,.313.582,1.912,1.912,0,0,0,.239.269,1.734,1.734,0,0,0,1.119.507.616.616,0,0,0,.164-.015,1.428,1.428,0,0,0,1.133-1.014.742.742,0,0,0,.03-.269.616.616,0,0,0-.03-.284A1.507,1.507,0,0,0,486.518,2209.121Z"/>
          <path id="Path_134" data-name="Path 134" class="cls-10" d="M488.069,2206.659l-1.283-.954-.03-.03-.373.492.4.3.493.373-.493.656-.194.268-.91-.671-.03.045-.343.448.343.253,1.133.85.91.671.373-.492-1.074-.791.7-.924.373.283.7.507.284-.373.089-.119-.089-.06Z"/>
          <path id="Path_135" data-name="Path 135" class="cls-10" d="M434.4,2197.815l.254-.09-.149-.447a.28.28,0,0,1-.1.03.448.448,0,0,1-.268-.06.812.812,0,0,1-.343-.477l-.03-.075-.373.134.224.642-.91.313-1.014.343.194.552.82-.284Z"/>
          <path id="Path_136" data-name="Path 136" class="cls-10" d="M434.12,2195.727l-.1-.463a.478.478,0,0,1-.373-.074.8.8,0,0,1-.284-.508l-.03-.089-.387.089.149.687-.388.089-1.6.358.134.567,1.462-.343Z"/>
          <path id="Path_137" data-name="Path 137" class="cls-10" d="M434.224,2176.963c.06.03.12.045.179.075a1.625,1.625,0,0,0,1.059.044h.015a1.3,1.3,0,0,0,.7-.6.736.736,0,0,0,.045-.1,1.026,1.026,0,0,0,.119-.611,1.875,1.875,0,0,0-.134-.418l.373.1.164-.373-.567-.269-.716-.328-.179-.075-.522,1.119.463.209.238-.522.045-.1a.8.8,0,0,1,.328.432.627.627,0,0,1-.03.492.844.844,0,0,1-.343.4.764.764,0,0,1-.1.045,1.11,1.11,0,0,1-.85-.09.735.735,0,0,0-.1-.059,1.087,1.087,0,0,1-.537-.522.752.752,0,0,1,.03-.642.618.618,0,0,1,.388-.358.462.462,0,0,1,.119-.03.331.331,0,0,1,.209.015l.268-.566a.863.863,0,0,0-.477-.06,1.557,1.557,0,0,0-.253.06,1.372,1.372,0,0,0-.731.745,1.33,1.33,0,0,0-.03,1.208A1.7,1.7,0,0,0,434.224,2176.963Z"/>
          <path id="Path_138" data-name="Path 138" class="cls-10" d="M435.462,2204.751a1.936,1.936,0,0,0,.716-.239.356.356,0,0,0,.1-.06,1.63,1.63,0,0,0,.687-.656,1.033,1.033,0,0,0-.075-1.089l-.656-1.148-.06.044-.716.4-.224.134-.089-.164-.448.254.09.164-.388.238-.731.433.642,1.119c.03.044.059.074.089.119a1.019,1.019,0,0,0,.88.448Zm-.731-.9-.313-.523.686-.4.343.6.015-.015.433-.253-.343-.582.552-.328.074.134.224.388a.644.644,0,0,1,.1.448.96.96,0,0,1-.328.447c-.074.045-.149.1-.253.164a1.7,1.7,0,0,1-.463.194.876.876,0,0,1-.194.03A.6.6,0,0,1,434.731,2203.856Z"/>
          <path id="Path_139" data-name="Path 139" class="cls-10" d="M432.032,2190.581a.575.575,0,1,0-.582.567A.571.571,0,0,0,432.032,2190.581Z"/>
          <path id="Path_140" data-name="Path 140" class="cls-10" d="M434.4,2200.887a2.371,2.371,0,0,0,.686-.417.867.867,0,0,0,.239-1.045.982.982,0,0,0-.492-.566.861.861,0,0,0-.433-.075,1.1,1.1,0,0,0-.417.09.885.885,0,0,0-.522.462.736.736,0,0,0-.015.686.78.78,0,0,0,.149.269.629.629,0,0,0,.268.164v.015a1.1,1.1,0,0,1-.656.089.414.414,0,0,1-.283-.238.448.448,0,0,1-.015-.239.272.272,0,0,1,.164-.179l-.209-.552a1.425,1.425,0,0,0-.164.12.667.667,0,0,0-.239.357.877.877,0,0,0,.015.642,1.146,1.146,0,0,0,.224.343.742.742,0,0,0,.358.224,1.806,1.806,0,0,0,1.223-.105C434.329,2200.917,434.359,2200.9,434.4,2200.887Zm-.477-.91a.384.384,0,0,1-.015-.313.556.556,0,0,1,.358-.283l.134-.045a.466.466,0,0,1,.3.045.335.335,0,0,1,.179.224c.1.268-.014.462-.343.6a.422.422,0,0,1-.134.03.324.324,0,0,1-.268-.03A.342.342,0,0,1,433.926,2199.977Z"/>
          <path id="Path_141" data-name="Path 141" class="cls-10" d="M437.58,2204.914l.463-.3-.328-.522-.134.089-1.4.865-.716.448-.284.164.284.447.059.075.657-.4Z"/>
          <path id="Path_142" data-name="Path 142" class="cls-10" d="M434.4,2180.334l.179.06.179-.537-.358-.134-1.641-.567,1.641-.3.761-.149.209-.582-.969-.328-1.7-.582-.149-.06-.194.552.343.119,1.611.552-1.611.313-.731.134-.209.612.94.313Z"/>
          <path id="Path_143" data-name="Path 143" class="cls-10" d="M431.42,2182.676a1.645,1.645,0,0,0,.925.507,3.108,3.108,0,0,0,.358.074,1.831,1.831,0,0,0,.716-.089,1.3,1.3,0,0,0,.582-.477,1.543,1.543,0,0,0,.223-.508,1.356,1.356,0,0,0,.03-.551,1.28,1.28,0,0,0-.283-.687,1.69,1.69,0,0,0-.94-.507,1.43,1.43,0,0,0-.328-.059,1.638,1.638,0,0,0-.731.074,1.308,1.308,0,0,0-.582.477,1.426,1.426,0,0,0-.223.508,1.36,1.36,0,0,0-.03.552A1.137,1.137,0,0,0,431.42,2182.676Zm.269-1.119a.69.69,0,0,1,.328-.462,1.1,1.1,0,0,1,.686-.1l.179.045a1.07,1.07,0,0,1,.746.462.685.685,0,0,1,.074.567.707.707,0,0,1-.328.462.974.974,0,0,1-.671.105c-.075-.015-.134-.03-.209-.045a1.066,1.066,0,0,1-.731-.462A.686.686,0,0,1,431.689,2181.557Z"/>
          <path id="Path_144" data-name="Path 144" class="cls-10" d="M430.749,2181.587l-.269-.343.388-.179.1-.447-.686.313-.134.492.477.611Z"/>
          <path id="Path_145" data-name="Path 145" class="cls-10" d="M431.912,2186.419a1.959,1.959,0,0,0,.791-.03,1.354,1.354,0,0,0,.776-2,1.427,1.427,0,0,0-.731-.522l-.045.358-.045.253a.055.055,0,0,0,.045.015.6.6,0,0,1,.328.269.575.575,0,0,1,.089.447.6.6,0,0,1-.387.507.047.047,0,0,1-.03.015,1.435,1.435,0,0,1-.686.06,1.242,1.242,0,0,1-.806-.373.586.586,0,0,1-.134-.492.64.64,0,0,1,.269-.477,1.208,1.208,0,0,1,.328-.1l.089-.611a.98.98,0,0,0-.731.208,1.346,1.346,0,0,0-.492.91,1.277,1.277,0,0,0,.269,1.014A1.66,1.66,0,0,0,431.912,2186.419Z"/>
          <path id="Path_146" data-name="Path 146" class="cls-10" d="M445.306,2212.223l-.477-.388-.85,1.029-.492.611-.3.358-.239.3.239.194.239.194.06-.075.492-.6Z"/>
          <path id="Path_147" data-name="Path 147" class="cls-10" d="M453.152,2217.384a.967.967,0,0,0,.03-.731.314.314,0,0,0-.075-.119.9.9,0,0,0-.462-.373l-.612-.239-.656-.254-1.118,2.73.581.239.4-1,.656.269.134.044a.832.832,0,0,0,.731-.1.866.866,0,0,0,.343-.387A.347.347,0,0,0,453.152,2217.384Zm-.567-.254a.6.6,0,0,1-.164.239.389.389,0,0,1-.388.029c-.015,0-.044-.014-.059-.014l-.537-.209.328-.8.268.1.194.075a.692.692,0,0,1,.358.253A.411.411,0,0,1,452.585,2217.13Z"/>
          <path id="Path_148" data-name="Path 148" class="cls-10" d="M448.379,2216.549l-.1-2.371-.537-.269-.045-.015-1.029,1.969-.328.656.328.179.194.089.88-1.7.09-.179.1,2.431.567.269,1.342-2.625-.507-.269Z"/>
          <path id="Path_149" data-name="Path 149" class="cls-10" d="M446.858,2212.536l.03.432.388.239-.06-.76-.432-.284-.119.045-.612.209.388.253.224-.075Z"/>
          <path id="Path_150" data-name="Path 150" class="cls-10" d="M436.148,2207.629l-.388.283.3.417.12-.074.268-.194-.268-.388Z"/>
          <path id="Path_151" data-name="Path 151" class="cls-10" d="M455.524,2217.041l-.313,1.074-1.119-.313.313-1.074-.417-.119-.179-.06-.7,2.416-.119.432.119.03.477.134.373-1.268.03.015,1.089.3-.373,1.283.6.164.283-.954.537-1.879-.537-.164Z"/>
          <path id="Path_152" data-name="Path 152" class="cls-10" d="M441.458,2208.867l-.388-.433-.045.045-1.522,1.3.79-2.237-.432-.492-.671.582-1.581,1.357.388.448,1.193-1.029.418-.358-.418,1.178-.4,1.118.4.448.015.015,1.82-1.566Z"/>
          <path id="Path_153" data-name="Path 153" class="cls-10" d="M437.58,2208.166l-.88-1.238.626-.447.254.358.582.82.432-.3-.835-1.178.507-.358.91,1.282h.015l.418-.3-.418-.582-.85-1.193-.761.537-1.4.969-.269.194.269.373,1.029,1.462.373-.254.06-.045Z"/>
          <path id="Path_154" data-name="Path 154" class="cls-10" d="M457.954,2219.233l-.044.254a.662.662,0,0,1-.224.388.613.613,0,0,1-.477.059.5.5,0,0,1-.343-.224.582.582,0,0,1-.06-.462l.373-1.879-.626-.119-.388,1.924a1.042,1.042,0,0,0,.089.746,1.138,1.138,0,0,0,.418.372,1.424,1.424,0,0,0,.447.164,1.528,1.528,0,0,0,.835-.044.73.73,0,0,0,.1-.045,1.066,1.066,0,0,0,.477-.776l.373-1.894-.626-.119Z"/>
          <path id="Path_155" data-name="Path 155" class="cls-10" d="M443.189,2212.924a1.2,1.2,0,0,0,.059-.164.6.6,0,0,0-.059-.418.115.115,0,0,0-.03-.059l.03.015a.542.542,0,0,0,.268.014h.03a.835.835,0,0,0,.358-.238.772.772,0,0,0,.134-.239.69.69,0,0,0,.045-.253.674.674,0,0,0-.045-.239,1.089,1.089,0,0,0-.328-.433l-.164-.149-.3-.253-.359-.3-.283-.254-.074.1-.433.477-1.014,1.164-.433.492.433.373.522.448a2.308,2.308,0,0,0,.492.343c.015,0,.03.014.045.014a.7.7,0,0,0,.358.045h.03a.678.678,0,0,0,.3-.074.114.114,0,0,1,.059-.03.783.783,0,0,0,.209-.179A1.411,1.411,0,0,0,443.189,2212.924Zm-.567-.254a1.156,1.156,0,0,1-.149.135.341.341,0,0,1-.164.045.478.478,0,0,1-.269-.09c-.015-.03-.045-.045-.075-.075l-.581-.492.522-.6.134.119.433.373.044.03a.607.607,0,0,1,.179.268A.292.292,0,0,1,442.622,2212.67Zm.208-.939-.029-.03-.328-.283-.224-.194.224-.269.193-.223.164.149.359.3.014.015a.547.547,0,0,1,.209.283.224.224,0,0,1-.074.254.252.252,0,0,1-.149.1.127.127,0,0,1-.1,0A.464.464,0,0,1,442.83,2211.731Z"/>
        </g>
      </g>
      <g id="Group_45" data-name="Group 45">
        <path id="Path_156" data-name="Path 156" class="cls-3" d="M422.308,2238.9v-8.426h-3.474v-1.716h9.3v1.716h-3.465v8.426Z"/>
        <path id="Path_157" data-name="Path 157" class="cls-3" d="M429.645,2228.758h2.364v5.493a9.834,9.834,0,0,0,.088,1.7,1.636,1.636,0,0,0,.722,1,2.81,2.81,0,0,0,1.561.377,2.648,2.648,0,0,0,1.517-.357,1.388,1.388,0,0,0,.615-.875,9.92,9.92,0,0,0,.1-1.722v-5.611h2.364v5.327a11.864,11.864,0,0,1-.192,2.58,2.715,2.715,0,0,1-.707,1.273,3.61,3.61,0,0,1-1.377.827,6.839,6.839,0,0,1-2.252.308,7.387,7.387,0,0,1-2.543-.336,3.647,3.647,0,0,1-1.369-.871,2.676,2.676,0,0,1-.663-1.125,10.724,10.724,0,0,1-.232-2.573Z"/>
        <path id="Path_158" data-name="Path 158" class="cls-3" d="M441.4,2238.9v-10.142h2.364V2238.9Z"/>
        <path id="Path_159" data-name="Path 159" class="cls-3" d="M446.078,2238.9v-10.059h2.363v8.35h5.877v1.709Z"/>
        <path id="Path_160" data-name="Path 160" class="cls-3" d="M455.995,2228.758h4.32a9.689,9.689,0,0,1,2.227.194,4.059,4.059,0,0,1,1.765.934,4.364,4.364,0,0,1,1.118,1.643,6.574,6.574,0,0,1,.383,2.4,5.857,5.857,0,0,1-.359,2.158,4.422,4.422,0,0,1-1.254,1.792,4.364,4.364,0,0,1-1.661.81,8.252,8.252,0,0,1-2.092.214h-4.447Zm2.363,1.716v6.717h1.765a7.374,7.374,0,0,0,1.429-.1,2.31,2.31,0,0,0,.954-.422,2.089,2.089,0,0,0,.619-.979,5.767,5.767,0,0,0,.24-1.857,5.291,5.291,0,0,0-.24-1.806,2.284,2.284,0,0,0-.671-.982,2.39,2.39,0,0,0-1.094-.477,12.282,12.282,0,0,0-1.94-.1Z"/>
        <path id="Path_161" data-name="Path 161" class="cls-3" d="M467.333,2233.891a5.692,5.692,0,0,1,.535-2.6,4.793,4.793,0,0,1,1.09-1.39,4.631,4.631,0,0,1,1.513-.914,7.313,7.313,0,0,1,2.523-.4,5.974,5.974,0,0,1,4.14,1.391,5.577,5.577,0,0,1,.012,7.71,5.925,5.925,0,0,1-4.12,1.387,6,6,0,0,1-4.152-1.38A4.844,4.844,0,0,1,467.333,2233.891Zm2.435-.069a3.471,3.471,0,0,0,.919,2.612,3.5,3.5,0,0,0,4.651.007,3.536,3.536,0,0,0,.906-2.647,3.477,3.477,0,0,0-.882-2.6,3.628,3.628,0,0,0-4.7.011A3.494,3.494,0,0,0,469.768,2233.822Z"/>
        <path id="Path_162" data-name="Path 162" class="cls-3" d="M480.556,2238.9v-10.142h2.3l4.791,6.773v-6.773h2.2V2238.9H487.47l-4.718-6.614v6.614Z"/>
        <path id="Path_163" data-name="Path 163" class="cls-3" d="M502.9,2238.9h-2.572l-1.021-2.3h-4.679l-.967,2.3h-2.507l4.559-10.142h2.5Zm-4.352-4.013-1.613-3.763-1.581,3.763Z"/>
        <path id="Path_164" data-name="Path 164" class="cls-3" d="M504.078,2238.9v-10.142h2.364V2238.9Z"/>
      </g>
    </g>
  </g>
</svg>
